# xmcd
#
# Track frame offsets:
#	150
#	14352
#	31660
#	45598
#	63181
#	77072
#	95712
#	110610
#	124361
#	141335
#	154764
#	172270
#	188015
#	206089
#	224481
#	242829
#	256505
#
# Disc length: 3613 seconds
#
# Revision: 1
# Processed by: cddbd v1.5.2PL0 Copyright (c) Steve Scherf et al.
# Submitted via: audiograbber 1.83.01
#
DISCID=f10e1b11
DTITLE=12bitphil - 12bitphil
DYEAR=2008
DGENRE=Rap
TTITLE0=PMA - Frauen die Du kennst
TTITLE1=Pimpilsiv - Alle
TTITLE2=Tarantado - Collapse
TTITLE3=Camouflow and Afrob - Was is ?
TTITLE4=Huss and Hodn - Die ganze Scheisse
TTITLE5=Bruno Betti - Wiedersehen
TTITLE6=AchWas - Roter Wein
TTITLE7=Rohdiamanten - Hasst Uns
TTITLE8=Donato and Inferno79  - Teufelskreis
TTITLE9=Abroo - Kein Mitleid
TTITLE10=Daez - Ungeeignet
TTITLE11=Sinuhe - WWW
TTITLE12=Maddest - Lange her
TTITLE13=Chefket - You lie so much
TTITLE14=PPA - Toys
TTITLE15=V-Mann and Morlockk Dilemma - Snuff Pro
TTITLE16=O-Flow - Kings
EXTD=
EXTT0=
EXTT1=
EXTT2=
EXTT3=
EXTT4=
EXTT5=
EXTT6=
EXTT7=
EXTT8=
EXTT9=
EXTT10=
EXTT11=
EXTT12=
EXTT13=
EXTT14=
EXTT15=
EXTT16=
PLAYORDER=
